
<svg width="243" height="38" viewBox="0 0 243 38" fill="none" xmlns="http://www.w3.org/2000/svg">
<path d="M10.44 26.65V7.77999H3V3.39999H23.26V7.77999H15.82V26.65H10.44Z" fill="#F17523"/>
<path d="M21.9301 26.65L32.2901 3.39999H37.6101L48.0001 26.65H42.3501L33.8501 6.11999H36.0001L27.4401 26.65H21.9301ZM27.1101 21.65L28.5401 17.56H40.5401L42.0001 21.67L27.1101 21.65Z" fill="#F17523"/>
<path d="M50.4301 26.65V3.4H60.4901C62.3337 3.35209 64.1668 3.69281 65.8701 4.4C67.2927 5.00829 68.5059 6.01994 69.3601 7.31C70.2044 8.65979 70.6322 10.2285 70.59 11.82C70.6302 13.3987 70.2023 14.9541 69.3601 16.29C68.5063 17.5709 67.2917 18.5697 65.8701 19.16C64.1667 19.8669 62.3337 20.2076 60.4901 20.16H53.4201L55.8101 17.8V26.64L50.4301 26.65ZM55.8101 18.41L53.4201 15.89H60.1901C61.5199 15.9921 62.8416 15.6084 63.9101 14.81C64.3265 14.4338 64.6532 13.969 64.866 13.4498C65.0789 12.9306 65.1726 12.3702 65.1401 11.81C65.1755 11.2495 65.0832 10.6882 64.8701 10.1685C64.6571 9.64885 64.3288 9.18433 63.9101 8.81C62.8382 8.01928 61.5182 7.63959 60.1901 7.74H53.4201L55.8101 5.19V18.41ZM65.2101 26.65L59.4001 18.21H65.1401L71.0001 26.65H65.2101Z" fill="#F17523"/>
<path d="M84.24 26.65V3.4H94.3C96.1436 3.35209 97.9767 3.69281 99.68 4.4C101.103 5.00829 102.316 6.01994 103.17 7.31C104.014 8.65979 104.442 10.2285 104.4 11.82C104.441 13.4051 104.013 14.9669 103.17 16.31C102.318 17.6 101.104 18.609 99.68 19.21C97.9779 19.9213 96.144 20.2622 94.3 20.21H87.23L89.62 17.78V26.62L84.24 26.65ZM89.62 18.41L87.23 15.85H94C95.3269 15.9533 96.6468 15.5772 97.72 14.79C98.1393 14.4161 98.468 13.9517 98.6811 13.4319C98.8942 12.9121 98.9862 12.3506 98.95 11.79C98.9854 11.2295 98.8931 10.6682 98.6801 10.1485C98.467 9.62885 98.1387 9.16433 97.72 8.79C96.6401 8.02052 95.3208 7.66231 94 7.78H87.23L89.62 5.23V18.41Z" fill="#1B3D66"/>
<path d="M104 26.65L114.36 3.39999H119.68L130.07 26.65H124.42L115.92 6.11999H118.05L109.51 26.65H104ZM109.18 21.65L110.61 17.56H122.61L124 21.67L109.18 21.65Z" fill="#1B3D66"/>
<path d="M132.5 26.65V3.40001H142.56C144.404 3.35329 146.236 3.69397 147.94 4.40001C149.363 5.0083 150.576 6.01995 151.43 7.31001C152.274 8.65979 152.702 10.2285 152.66 11.82C152.7 13.3988 152.272 14.9541 151.43 16.29C150.576 17.5709 149.362 18.5697 147.94 19.16C146.236 19.8661 144.404 20.2067 142.56 20.16H135.49L137.88 17.8V26.64L132.5 26.65ZM137.88 18.41L135.49 15.89H142.26C143.597 15.9971 144.926 15.6131 146 14.81C146.416 14.4339 146.743 13.969 146.956 13.4498C147.169 12.9306 147.263 12.3702 147.23 11.81C147.265 11.2495 147.173 10.6882 146.96 10.1685C146.747 9.64886 146.419 9.18434 146 8.81001C144.928 8.01929 143.608 7.63959 142.28 7.74001H135.51L137.9 5.19001L137.88 18.41ZM147.28 26.65L141.46 18.21H147.21L153.09 26.65H147.28Z" fill="#1B3D66"/>
<path d="M156.91 26.65V3.39999H162.25V26.65H156.91ZM161.72 21.33L161.42 15.12L172.55 3.39999H178.55L168.55 14.19L165.55 17.38L161.72 21.33ZM172.81 26.65L164.54 16.52L168.06 12.7L179.06 26.7L172.81 26.65Z" fill="#1B3D66"/>
<path d="M181.49 26.65V3.39999H186.87V26.65H181.49Z" fill="#1B3D66"/>
<path d="M192.38 26.65V3.39999H196.83L210.54 20.14H208.38V3.39999H213.7V26.65H209.28L195.53 9.90999H197.69V26.65H192.38Z" fill="#1B3D66"/>
<path d="M230.44 27.05C228.711 27.0661 226.993 26.7679 225.37 26.17C223.884 25.6065 222.524 24.7534 221.37 23.66C220.231 22.5824 219.325 21.2822 218.71 19.84C218.066 18.3156 217.742 16.6749 217.76 15.02C217.742 13.3684 218.066 11.7309 218.71 10.21C219.327 8.76597 220.236 7.46531 221.38 6.39C222.534 5.29666 223.894 4.44347 225.38 3.88C228.853 2.63745 232.656 2.68002 236.1 4C237.707 4.65687 239.136 5.6849 240.27 7L236.81 10.19C236.04 9.34241 235.104 8.66173 234.06 8.19C233.03 7.7514 231.92 7.53012 230.8 7.54C229.746 7.52832 228.699 7.70789 227.71 8.07C226.814 8.41027 225.997 8.93103 225.31 9.6C224.625 10.2795 224.093 11.0978 223.75 12C223.376 12.9555 223.189 13.974 223.2 15C223.185 16.0264 223.372 17.0457 223.75 18C224.1 18.8927 224.631 19.7031 225.31 20.38C225.988 21.0574 226.803 21.5825 227.7 21.92C228.658 22.2811 229.676 22.4609 230.7 22.45C231.754 22.4516 232.802 22.2793 233.8 21.94C234.883 21.55 235.881 20.956 236.74 20.19L239.8 24.08C238.472 25.0607 236.983 25.8019 235.4 26.27C233.794 26.7731 232.123 27.0359 230.44 27.05ZM234.92 23.39V14.66H239.84V24.09L234.92 23.39Z" fill="#1B3D66"/>
<path d="M239.84 34.4H10.4399V35.33H239.84V34.4Z" fill="#1B3D66"/>
<path d="M239.84 33.76H186.2V35.85H239.84V33.76Z" fill="#F48C20"/>
</svg>
